<?xml version="1.0" encoding="utf-8"?>
<!-- Generator: Adobe Illustrator 16.0.0, SVG Export Plug-In . SVG Version: 6.00 Build 0)  -->
<!DOCTYPE svg PUBLIC "-//W3C//DTD SVG 1.1//EN" "http://www.w3.org/Graphics/SVG/1.1/DTD/svg11.dtd">
<svg version="1.1" id="Capa_1" xmlns="http://www.w3.org/2000/svg" xmlns:xlink="http://www.w3.org/1999/xlink" x="0px" y="0px"
	 width="627px" height="727px" viewBox="0 0 627 727" enable-background="new 0 0 627 727" xml:space="preserve">
<g>
	<g>
		<g>
			<path fill-rule="evenodd" clip-rule="evenodd" fill="#203C8A" d="M11.237,145.189v48.063c0.975,1.402,2.214,42.837,2.559,48.689
				c0.959,16.247,2.052,31.796,3.726,47.717c6.205,58.998,16.102,114.856,34.794,170.641c8.794,26.247,19.034,49.115,30.587,72.155
				c12.045,24.016,28.967,48.793,45.61,69.606c40.802,51.021,99.675,88.95,162.398,107.894c9.087,2.742,14.361,3.685,23.166,7.679
				c4.926-1.975,7.6-3.429,13.098-4.926c52.156-14.202,94.209-36.498,134.678-71.26l20.012-18.866
				c1.226-1.262,1.752-2.241,3.027-3.45l9.11-10.334c1.642-2.209,4.144-5.037,5.973-6.979c2.728-2.898,8.938-10.901,11.337-14.106
				c44.138-58.957,72.003-136.13,86.511-210.177c10.799-55.117,15.685-106.555,18.094-162.466
				c0.657-21.55,1.122-36.661,1.122-61.252l-0.949-9.172c-16.8,1.266-27.313,2.044-43.863-1.553
				c-12.844-2.791-25.394-6.626-35.719-12.398c-7.046-3.938-18.933-11.737-24.503-17.612c-1.083-1.145-1.887-1.905-2.998-3.019
				c-5.708-5.708-12.539-12.017-17.456-18.645c-1.76-2.372-3.675-3.774-5.298-6.251c-3.495,0.03-10.221,1.846-14.11,2.432
				c-14.987,2.257-29.97,3.771-45.324,3.21c-18.337-0.669-38.268-4.597-52.041-12.665c-6.662-3.901-18.76-12.181-23.417-17.302
				l-7.864-8.334c-1.229-1.257-2.419-2.812-3.56-4.31c-9.306-12.236-11.818-17.336-19.387-29.202
				c-1.869-2.931-4.928-7.063-6.288-10.022h-0.378c-1.356,2.726-4.622,7.503-6.412,10.228c-2.187,3.328-4.052,6.543-6.133,10.062
				c-7.146,12.089-18.284,26.576-29.079,35.697c-5.862,4.954-11.438,8.867-19.177,13.24c-29.548,16.692-64.992,13.71-97.792,9.322
				c-4.547-0.608-9.649-1.717-14.135-2.179c-1.255,2.031-3.485,4.802-5.248,6.646c-2.16,2.259-3.046,3.91-5.687,6.336
				c-1.902,1.749-4.057,4.199-5.892,6.152c-19.041,20.269-38.947,33.167-68.27,38.16C40.365,145.31,27.363,144.615,11.237,145.189z"
				/>
			<path fill-rule="evenodd" clip-rule="evenodd" fill="#FFFFFF" d="M196.357,99.637c-8.813,0-17.633-0.519-26.303-1.533
				c-7.712-0.902-17.629-2.851-25.067-3.188c-2.038,2.152-3.202,3.717-5.34,5.891c-2.003,2.037-3.373,4.253-5.507,6.075
				l-11.557,11.579c-1.173,1.368-10.25,9.197-12.119,10.557c-26.619,19.362-54.228,24.71-90.466,24.848
				c-0.175,7.459-0.292,28.813-0.035,35.59l0.769,10.172c-0.099,15.742,1.172,32.835,2.085,48.599
				c4.682,80.799,21.153,179.312,54.406,252.42c12.964,28.503,27.872,56.337,46.536,81.184c3.659,4.873,7.441,10.445,11.292,14.636
				c4.093,4.452,7.743,9.682,11.76,13.694l22.361,22.057c1.29,1.072,2.068,2.001,3.344,3.124
				c23.568,20.794,49.139,36.193,78.092,50.107c19.5,9.372,36.354,14.22,56.802,20.035c4.594,1.307,5.615,2.654,10.285,0.979
				c3.196-1.146,6.745-1.966,10.062-2.883c38.097-10.526,72.108-26.925,103.893-49.293c13.38-9.415,23.229-18.164,34.854-29.017
				c3.83-3.576,12.456-12.11,15.851-16.07c18.304-21.334,30.76-36.963,45.845-62.917c19.686-33.868,33.758-70.396,45.58-108.058
				c8.174-26.038,14.661-54.893,19.32-82.938c10.228-61.553,16.429-136.912,15.128-201.119l-10.622,0.472
				c-22.109,0.927-53.536-9.179-68.963-18.397c-14.095-8.425-25.08-18.315-35.517-29.743c-1.766-1.935-3.459-3.976-5.205-5.9
				c-1.604-1.765-3.772-4.228-4.975-6.041c-31.482,4.155-60.052,9.128-92.479-0.626c-34.239-10.299-56.763-35.504-73.882-64.974
				c-0.985-1.694-1.419-2.748-2.76-3.831c-2.417,5.777-15.152,23.915-18.977,28.651C270.273,84.208,240.08,99.637,196.357,99.637z"
				/>
		</g>
		<path fill-rule="evenodd" clip-rule="evenodd" fill="#213B8C" d="M178.552,625.482c5.558,6.298,29.286,23.246,35.416,27.166
			c26.668,17.056,54.695,30.22,86.209,39.397c14.492,4.223,11.433,4.929,25.169,0.825c8.106-2.418,15.971-4.843,23.763-7.765
			c67.415-25.278,110.834-62.732,144.606-107.102c33.711-44.288,62.277-107.124,77.813-173.88
			c15.834-68.04,22.319-126.116,24.812-195.394c0.333-9.262,1.282-22.178,0.589-31.122c-1.279,0.727-1.119,0.71-2.131,1.887
			l-4.806,5.049c-1.135,1.313-2.109,2.596-3.313,3.76l-16.429,17.434c-9.468,10.984-23.333,24.259-32.681,35.066
			c-2.149,2.486-4.42,4.569-6.58,7.063c-2.152,2.488-4.421,4.566-6.579,7.063c-10.818,12.52-28.091,29.253-39.044,41.876
			c-2.156,2.483-4.42,4.575-6.581,7.064l-12.939,13.876c-2.154,2.491-4.432,4.582-6.581,7.063
			c-5.5,6.341-14.068,14.647-19.521,20.938c-2.153,2.481-4.422,4.576-6.58,7.064c-9.157,10.575-23.588,24.537-32.683,35.065
			c-10.81,12.516-28.196,29.337-39.042,41.878c-11.153,12.896-28.098,29.181-39.262,42.13c-1.285,1.49-2.038,2.058-3.503,3.54
			l-16.017,17.4c-1.237,1.436-2.206,2.146-3.514,3.53c-1.142,1.204-1.98,2.269-3.067,3.533l-6.581,7.063
			c-3.607,4.182-12.249,12.784-16.457,17.399l-19.519,20.943c-1.144,1.211-1.976,2.269-3.066,3.533l-13.158,14.132
			c-1.112,1.277-2.168,2.023-3.302,3.267l-16.221,17.67c-1.189,1.374-2.303,2.182-3.521,3.521l-16,17.421
			c-1.171,1.344-2.344,2.186-3.521,3.517c-1.147,1.294-1.938,2.256-3.06,3.546L178.552,625.482L178.552,625.482z M94.797,511.802
			L94.797,511.802c-2.832-3.084-13.306-29.506-15.695-35.738c-14.881-38.829-25.436-79.378-32.69-121.17
			C35.833,293.96,30.931,228.537,31.133,164.889c32.285-0.866,60.837-8.5,84.621-25.957c2.272-1.667,4.209-3.104,6.438-4.856
			c4.421-3.475,13.321-11.657,17.164-15.762c2.885-3.081,8.242-8.666,10.352-11.626c8.555,0.819,17.099,2.405,25.967,3.173
			c32.734,2.834,68.447-0.744,95.462-19.261c4.727-3.24,8.497-5.719,12.722-9.397c5.751-5.011,6.734-6.607,11.043-10.594
			c3.846-3.559,10.13-11.472,13.307-15.857c1.863-2.57,4.251-5.684,5.677-8.323c1.356,1.09,2.026,2.481,3.136,4.051
			c6.365,9.003,8.713,11.516,15.711,19.568c5.95,6.848,15.288,14.323,22.865,19.485c35.389,24.108,73.176,23.071,116.133,18.135
			c-1.034,1.633-25.048,26.882-29.541,31.642l-29.386,31.793c-1.06,1.217-1.964,1.84-3.079,3.02l-8.771,9.588
			c-3.836,4.441-18.345,19.806-23.461,24.984c-2.201,2.229-3.308,4.088-5.854,6.382l-59.071,63.243
			c-4.818,4.879-13.771,15.456-17.581,19.133l-17.521,18.7c-6.306,7.303-16.888,17.737-23.697,25.219l-32.462,34.813
			c-5.998,6.596-15.724,16.548-20.613,22.206c-1.002,1.159-1.796,2.194-2.859,3.269c-1.252,1.27-1.949,1.745-3.065,3.035
			l-76.54,82.003c-2.198,2.222-3.314,4.099-5.852,6.387L97.6,508.884C96.589,510.053,95.989,510.946,94.797,511.802z"/>
		<path fill-rule="evenodd" clip-rule="evenodd" fill="#24388D" d="M228.334,487.771l22.799-13.247
			c4.02,6.063,6.515,12.038,7.504,17.947c0.989,5.906,0.516,11.664-1.407,17.26c-1.909,5.608-5.727,11.454-11.41,17.549
			c-6.911,7.41-13.643,12.466-20.151,15.151c-6.541,2.683-14.122,3.209-22.73,1.561c-8.595-1.665-17.128-6.419-25.588-14.307
			c-11.283-10.521-17.167-21.617-17.62-33.254c-0.468-11.652,4.418-22.97,14.645-33.937c8.005-8.586,16.026-13.717,24.088-15.396
			c8.063-1.679,16.8-0.356,26.208,3.969l-13.202,22.461c-2.686-1.288-4.845-2.025-6.48-2.216c-2.698-0.319-5.282-0.029-7.739,0.855
			c-2.47,0.899-4.674,2.403-6.643,4.515c-4.439,4.762-5.939,10.219-4.465,16.339c1.065,4.585,4.639,9.727,10.748,15.422
			c7.571,7.062,13.825,10.727,18.765,11.062c4.955,0.317,9.355-1.602,13.218-5.743c3.759-4.032,5.474-8.129,5.129-12.309
			C233.671,497.288,231.778,492.73,228.334,487.771L228.334,487.771z M264.364,466.951L264.364,466.951l18.869-20.233l18.964,17.685
			l-18.868,20.235L264.364,466.951L264.364,466.951z M358.764,381.183L358.764,381.183l-22.377,23.996l8.174,13.793l-20.068,21.521
			l-44.276-89.18l21.415-22.963l92.063,37.932l-20.555,22.045L358.764,381.183L358.764,381.183z M339.905,371.847L339.905,371.847
			l-31.533-15.312l17.518,30.341L339.905,371.847L339.905,371.847z M379.879,343.075L379.879,343.075l18.965,17.686l18.87-20.236
			l-18.964-17.684L379.879,343.075L379.879,343.075z M474.28,257.307L474.28,257.307l-22.376,23.996l8.174,13.794l-20.068,21.52
			l-44.277-89.177l21.414-22.965l92.064,37.933l-20.556,22.043L474.28,257.307L474.28,257.307z M455.423,247.97L455.423,247.97
			l-31.533-15.312l17.519,30.341L455.423,247.97L455.423,247.97z M495.396,219.199L495.396,219.199l18.964,17.685l18.87-20.234
			l-18.966-17.685L495.396,219.199z"/>
	</g>
</g>
</svg>
